<?xml version="1.0" encoding="utf-8"?>
<!-- Generator: Adobe Illustrator 22.0.0, SVG Export Plug-In . SVG Version: 6.00 Build 0)  -->
<svg version="1.1" id="Capa_1" xmlns="http://www.w3.org/2000/svg" xmlns:xlink="http://www.w3.org/1999/xlink" x="0px" y="0px"
	 viewBox="0 0 90.7 55" style="enable-background:new 0 0 90.7 55;" xml:space="preserve">
<style type="text/css">
	.st0{fill:#1A171B;}
</style>
<g transform="translate(0)">
	<g transform="translate(0 0)">
		<path class="st0" d="M88.4,11.5h-66c-0.1,0-0.1,0-0.2,0c-0.2,0-0.2,0.1-0.3,0.2c-0.5,1.5-1.1,3.4-1.7,4.9
			c-1.9,5.7-3.9,11.4-5.8,17c0,0.1-0.1,0.2-0.1,0.3c-0.1-0.2-0.1-0.2-0.1-0.3c-0.7-2.5-1.5-5-2.2-7.5c-1.4-4.7-2.8-9.5-4.2-14.2
			c-0.1-0.2-0.1-0.3-0.4-0.3c-2.4,0-4.8,0-7.1,0c-0.1,0-0.2,0-0.3,0c0,0.1,0,0.1,0,0.1l2.1,6.5c2.6,8.2,5.2,16.4,7.8,24.6
			c0,0.1,0.1,0.2,0.3,0.2c0,0,0,0,0,0h8c0.1,0,0.3-0.1,0.3-0.2c0.2-0.5,0.4-1,0.6-1.6c2.8-7.6,5.8-15.8,8.5-23.4
			c0-0.3,0.3-0.4,0.6-0.4c0,0,0,0,0,0h60.2L88.4,11.5z"/>
		<path class="st0" d="M53.5,30.5V43H47V20.2h6.8c0.2,0,0.3,0.1,0.4,0.2c2.1,3.9,4.2,7.8,6.3,11.8c0,0.1,0.1,0.2,0.2,0.2V20.2h6.5
			V43h-6.4c-0.2,0-0.3-0.1-0.4-0.2c-2.2-4-4.4-8-6.6-11.9C53.7,30.7,53.6,30.6,53.5,30.5L53.5,30.5z"/>
		<path class="st0" d="M88.2,27.1h-6.5c0.1-0.6-0.1-1.2-0.6-1.6c-0.3-0.2-0.6-0.4-0.9-0.6c-0.9-0.3-1.9-0.3-2.9,0
			c-0.5,0.1-1,0.6-1,1.1c0,0.4,0.2,0.8,0.5,1.1c0.5,0.4,1.2,0.7,1.9,0.9c1.4,0.4,2.8,0.7,4.2,1.1c1.1,0.3,2.2,0.7,3.3,1.3
			c1.6,0.9,2.7,2.5,2.9,4.3c0.3,1.8-0.2,3.7-1.2,5.3c-0.9,1.2-2.1,2.1-3.4,2.6c-1.3,0.5-2.7,0.8-4.2,0.9c-1.8,0.2-3.7,0-5.4-0.6
			c-1.5-0.4-2.8-1.2-3.9-2.2c-1-1.1-1.7-2.4-1.9-3.9c-0.1-0.5-0.1-1-0.1-1.5h6.9c0,0.3,0.1,0.6,0.1,1c0.1,1,0.8,1.7,1.8,2
			c1,0.3,2.1,0.3,3.1,0c0.8-0.2,1.4-0.9,1.4-1.8c0.1-0.5-0.2-1-0.6-1.2c-0.6-0.3-1.3-0.6-1.9-0.8c-1.6-0.5-3.3-1-4.9-1.5
			c-1-0.3-2-0.8-2.8-1.4c-1.3-0.9-2.1-2.4-2.2-3.9c-0.1-1.6,0.3-3.3,1.2-4.6c0.9-1.3,2.3-2.3,3.8-2.8c1.6-0.6,3.4-0.8,5.1-0.6
			c1.7,0,3.4,0.5,4.9,1.3c1.8,1,3,2.8,3.3,4.8c0,0.2,0.1,0.5,0.1,0.7C88.2,26.7,88.2,26.8,88.2,27.1z"/>
		<path class="st0" d="M22.7,43c0.3-0.7,0.5-1.3,0.7-2c2.5-6.8,4.9-13.7,7.4-20.5c0-0.2,0.2-0.3,0.4-0.3h6.2c0.2,0,0.4,0.1,0.4,0.3
			c2.2,6.1,4.3,12.1,6.5,18.2c0.5,1.4,1,2.7,1.5,4.1c0,0.1,0,0.1,0.1,0.2h-6.9c-0.2,0-0.3-0.1-0.4-0.2c0,0,0,0,0,0
			c-0.3-0.9-0.5-1.8-0.8-2.8c0-0.2-0.1-0.3-0.3-0.3h-6.7c-0.2,0-0.3,0.1-0.3,0.2c-0.3,0.9-0.6,1.9-0.9,2.8c0,0.1-0.1,0.2-0.2,0.2
			L22.7,43L22.7,43z M32.1,34.8h4.2l-2-7h-0.1C33.6,30.1,32.8,32.5,32.1,34.8L32.1,34.8z"/>
		<path class="st0" d="M89.5,40.5c-0.6,0-1.1,0.5-1.1,1.2c0,0.6,0.5,1.1,1.2,1.1c0.6,0,1.1-0.5,1.1-1.2c0-0.3-0.1-0.6-0.3-0.8
			C90.1,40.7,89.8,40.5,89.5,40.5z M89.5,42.6c-0.5,0-1-0.4-1-1c0-0.5,0.4-1,1-1c0.5,0,1,0.4,1,1c0,0.3-0.1,0.5-0.3,0.7
			C90,42.5,89.8,42.6,89.5,42.6z"/>
		<path class="st0" d="M89.1,41.1h0.5c0.1,0,0.2,0,0.2,0c0.1,0.1,0.2,0.2,0.2,0.3c0,0.1,0,0.1,0,0.2c0,0-0.1,0.1-0.1,0.1
			c0,0,0.1,0,0.1,0.1c0,0,0,0.1,0,0.2v0.2c0,0,0,0.1,0,0.1c0,0,0,0.1,0.1,0.1v0h-0.2c0,0,0,0,0,0v-0.3c0-0.1,0-0.1-0.1-0.2
			c0,0-0.1,0-0.1,0h-0.4v0.5h-0.2L89.1,41.1z M89.6,41.6c0.1,0,0.1,0,0.2,0c0.1,0,0.1-0.1,0.1-0.2c0-0.1,0-0.1-0.1-0.2
			c0,0-0.1,0-0.1,0h-0.4v0.4L89.6,41.6z"/>
	</g>
</g>
</svg>
