<?xml version="1.0" encoding="utf-8"?>
<!-- Generator: Adobe Illustrator 22.0.0, SVG Export Plug-In . SVG Version: 6.00 Build 0)  -->
<svg version="1.1" id="Capa_1" xmlns="http://www.w3.org/2000/svg" xmlns:xlink="http://www.w3.org/1999/xlink" x="0px" y="0px"
	 viewBox="0 0 52.8 55" style="enable-background:new 0 0 52.8 55;" xml:space="preserve">
<style type="text/css">
	.st0{fill:#1A171B;}
</style>
<g transform="translate(0 0)">
	<g transform="translate(0 0)">
		<path class="st0" d="M48.4,12.7l-7.9-7.9c-1.7-1.6-4.4-1.6-6,0.1c-1.6,1.6-1.6,4.2-0.1,5.8l8,8c2.7,2.7,2.7,7,0,9.6L31.6,39.1
			h10.2c1.2,0,2.3-0.5,3.1-1.3l3.5-3.5C54.3,28.3,54.3,18.6,48.4,12.7C48.4,12.7,48.4,12.7,48.4,12.7"/>
		<path class="st0" d="M42,23.5c0-1.2-0.5-2.3-1.3-3.2L29.6,9.2c-1.8-1.8-4.6-1.8-6.3,0L12.1,20.3c-1.7,1.8-1.7,4.6,0,6.3l3.5,3.5
			c1.8,1.8,4.6,1.8,6.3,0c0,0,0,0,0,0l2.8-2.8l-3.9-3.9l5.5-5.5l5.5,5.5l-8.3,8.3c-2.7,2.6-7,2.6-9.6,0l-3.5-3.5
			c-2.7-2.7-2.7-7,0-9.6l7.9-7.9c0.8-0.8,1.2-1.9,1.2-3c0-2.3-1.9-4.2-4.2-4.2c-1.1,0-2.2,0.5-3,1.2l-7.9,7.9c-6,6-6,15.7,0,21.6
			L8,37.8c0.8,0.8,2,1.3,3.2,1.3h15.3c1.2,0,2.3-0.5,3.2-1.3l11.1-11.1C41.6,25.8,42,24.7,42,23.5"/>
		<path class="st0" d="M46.7,43.9L46.7,43.9c-1.7,0-3.2,1.2-3.6,2.8c-0.5-2-2.6-3.2-4.6-2.7c-1.2,0.3-2.2,1.2-2.6,2.4v-3.8
			c0-0.7-0.6-1.2-1.2-1.2s-1.2,0.6-1.2,1.2c0,0,0,0,0,0v1.5c-0.4-0.2-0.9-0.2-1.3-0.2l0,0c-1.7,0-3.2,1.2-3.6,2.9
			C28,44.8,26,43.6,24,44c-1.4,0.3-2.4,1.4-2.7,2.7c-0.5-2-2.5-3.2-4.5-2.7c-1.4,0.3-2.4,1.4-2.7,2.7v-1.6c0-0.7-0.6-1.2-1.3-1.1
			c-0.6,0-1.1,0.5-1.1,1.1v2.8c0,0.6-0.5,1.1-1.1,1.1s-1.1-0.5-1.1-1.1v-2.8c0-0.7-0.6-1.2-1.3-1.1c-0.6,0-1.1,0.5-1.1,1.1v2.8
			c0,0.6-0.5,1.1-1.1,1.1c-0.6,0-1.1-0.5-1.1-1.1l0,0v-2.8c0-0.7-0.5-1.2-1.2-1.3s-1.2,0.5-1.3,1.2c0,0,0,0,0,0.1v2.8
			c0,1.9,1.6,3.5,3.5,3.5c0.8,0,1.7-0.3,2.3-0.9c1.5,1.3,3.7,1.1,5-0.3c0.4-0.5,0.7-1.1,0.8-1.8c0.4,2,2.4,3.3,4.4,2.9
			c1.4-0.3,2.6-1.4,2.9-2.8c0.5,2,2.5,3.2,4.5,2.7c1.3-0.3,2.4-1.4,2.7-2.7c0.4,1.7,1.9,2.9,3.6,2.9l0,0c1.8,0,3.3-1.2,3.7-2.9
			c0.5,2,2.5,3.3,4.5,2.8c1.4-0.3,2.4-1.4,2.8-2.7c0.5,2,2.6,3.2,4.6,2.7s3.2-2.6,2.7-4.6C49.9,45.1,48.4,43.9,46.7,43.9 M17.6,49
			c-0.7,0-1.3-0.6-1.3-1.3c0-0.7,0.6-1.3,1.3-1.3c0.7,0,1.3,0.6,1.3,1.3c0,0,0,0,0,0C18.9,48.4,18.3,49,17.6,49 M24.9,49
			c-0.7,0-1.3-0.6-1.3-1.3c0-0.7,0.6-1.3,1.3-1.3c0.7,0,1.3,0.6,1.3,1.3c0,0,0,0,0,0C26.2,48.4,25.6,49,24.9,49 M32.2,49L32.2,49
			c-0.7,0-1.3-0.6-1.3-1.3c0-0.7,0.6-1.3,1.3-1.3l0,0c0.7,0,1.3,0.6,1.3,1.3C33.4,48.4,32.9,49,32.2,49 M39.5,49
			c-0.7,0-1.3-0.6-1.3-1.3c0-0.7,0.6-1.3,1.3-1.3c0.7,0,1.3,0.6,1.3,1.3c0,0,0,0,0,0C40.8,48.4,40.2,49,39.5,49 M46.7,49L46.7,49
			c-0.7,0-1.3-0.6-1.3-1.3c0-0.7,0.6-1.3,1.3-1.3c0.7,0,1.3,0.6,1.3,1.3c0,0,0,0,0,0C48,48.4,47.4,49,46.7,49"/>
		<path class="st0" d="M48.7,43.6h0.2v0.6c0,0,0,0.1,0,0.1c0,0,0,0,0.1,0c0,0,0.1,0,0.1,0c0,0,0,0,0-0.1v-0.6h0.2c0,0,0.1,0,0.1,0
			c0,0,0,0,0-0.1c0,0,0,0,0-0.1c0,0,0,0-0.1,0h-0.6c0,0-0.1,0-0.1,0c0,0,0,0,0,0.1C48.6,43.6,48.6,43.6,48.7,43.6
			C48.7,43.6,48.7,43.6,48.7,43.6"/>
		<path class="st0" d="M50.5,43.5C50.5,43.5,50.5,43.5,50.5,43.5C50.4,43.5,50.4,43.5,50.5,43.5c-0.1,0-0.1,0-0.1,0h-0.1
			c0,0-0.1,0-0.1,0c0,0,0,0,0,0.1L50,44.1l0,0l-0.2-0.6c0,0,0-0.1,0-0.1c0,0,0,0-0.1,0h-0.1c0,0,0,0,0,0c0,0,0,0,0,0c0,0,0,0,0,0
			c0,0,0,0,0,0.1v0.7c0,0,0,0,0,0.1c0,0,0,0,0.1,0c0,0,0.1,0,0.1,0c0,0,0,0,0-0.1v-0.6l0,0l0.2,0.6c0,0,0,0,0,0c0,0,0,0,0.1,0
			c0,0,0,0,0.1,0c0,0,0,0,0,0l0.2-0.6l0,0v0.6c0,0,0,0,0,0.1c0,0,0,0,0.1,0c0,0,0.1,0,0.1,0c0,0,0,0,0-0.1L50.5,43.5
			C50.5,43.5,50.5,43.5,50.5,43.5"/>
	</g>
</g>
</svg>
