<?xml version="1.0" encoding="utf-8"?>
<!-- Generator: Adobe Illustrator 22.0.0, SVG Export Plug-In . SVG Version: 6.00 Build 0)  -->
<svg version="1.1" id="Capa_1" xmlns="http://www.w3.org/2000/svg" xmlns:xlink="http://www.w3.org/1999/xlink" x="0px" y="0px"
	 viewBox="0 0 123.9 55" style="enable-background:new 0 0 123.9 55;" xml:space="preserve">
<style type="text/css">
	.st0{fill:#1A171B;}
</style>
<g transform="translate(0 0)">
	<g transform="translate(0 0)">
		<path class="st0" d="M92.3,13.2c0.2-0.8,0.9-0.5,1.5-0.4c2.2,0.5,4.5,0.9,6.7,1c1.3,0.1,2.5,0.7,3.3,1.7c0.8,1.2,1.4,2.6,1.7,4.1
			c1,3.3,1.8,6.7,1.3,10.2c-0.5,2.5-1.1,5-1.9,7.5c-0.4,1.8-1.8,3.2-3.6,3.7c-2.1,0.4-4.3,0.5-6.5,1c-0.9,0.1-1.8,0.6-2.7,0.2
			c0.6-1,1.7-1.6,2.4-2.5c5.9-6.4,6.1-17,0.5-23.7C94.2,15,93.3,14,92.3,13.2z"/>
		<path class="st0" d="M122.4,12.8c0.5,0,1.4-0.4,1.5,0.3c-0.6,0.7-1.4,1.2-2,1.9c-5.7,6-6.4,16.1-1.6,22.9c1,1.4,2.1,2.6,3.4,3.7
			c0.3,0.2,0,1-0.5,0.7c-1.9-0.4-3.8-0.8-5.8-1c-1.5-0.2-3.1-0.2-4.3-1.1c-1.4-1.1-1.9-2.9-2.4-4.5c-0.9-2.7-1.4-5.5-1.6-8.4
			c0.3-3.2,1-6.4,2-9.4c0.5-1.8,1.8-3.6,3.8-3.8C117.5,13.6,120,13.4,122.4,12.8z"/>
		<path class="st0" d="M0.1,17.6c0-1.2,0-2.4,0.1-3.6c1.5,0.1,3,0,4.6,0c-0.1,2.9,0,5.8,0,8.8c2.7,0.1,5.5,0,8.2,0
			c0.1-2.9,0-5.9,0-8.8c1.5,0,3.1,0,4.6,0c0,7.8,0,15.5,0,23.3H13c-0.1-3.4,0-6.8-0.1-10.2c-2.7,0-5.4,0-8.1,0c0,3.4-0.1,6.8,0,10.2
			c-1.6,0-3.2,0-4.7,0C0.1,30.8,0,24.2,0.1,17.6z"/>
		<path class="st0" d="M48.1,14.1h4.4v23.2c-1.4,0-2.9,0-4.3,0C48.1,29.6,48.2,21.8,48.1,14.1z"/>
		<path class="st0" d="M43,20.2c1.1-0.5,2.4-0.5,3.6-0.1v4.3c-0.9-0.8-2.3-1.4-3.5-0.7c-1.3,0.9-1.4,2.7-1.6,4.1
			c-0.1,3.2,0,6.3-0.1,9.5c-1.5,0-2.9,0-4.4,0c0-5.7-0.1-11.5,0-17.2c1.3,0,2.5,0,3.8,0c0,0.7,0,1.5,0.1,2.2
			C41.4,21.5,42.1,20.7,43,20.2z"/>
		<path class="st0" d="M19.3,20.2c1.5,0,2.9,0,4.4,0c0.1,3,0,6,0.1,9c0.1,1.2,0,2.5,0.8,3.5c0.9,1.1,2.4,1.5,3.8,1
			c1.3-0.4,2.2-1.6,2.2-2.9c0.2-3.5,0.1-7.1,0.1-10.6c1.5,0,3,0,4.4,0c0,3,0,6,0,9c0,2.1-0.3,4.3-1.7,6c-1.8,2.3-5,2.9-7.8,2.5
			c-1.9-0.2-3.6-1.1-4.7-2.6c-1.1-1.6-1.7-3.6-1.5-5.6C19.2,26.4,19.3,23.3,19.3,20.2z"/>
		<path class="st0" d="M71.9,20.1c1.5,0,3.1,0,4.6,0.1c1.5,3.6,3,7.2,4.6,10.7c1.7-3.6,3.4-7.2,5.1-10.8c1.5,0,3-0.1,4.5,0.1
			c-3.2,6.9-6.5,13.7-9.7,20.6c-1.5,0-3,0-4.5,0c0.7-1.6,1.4-3.1,2.1-4.7C76.4,30.8,74,25.5,71.9,20.1z"/>
		<path class="st0" d="M72.4,32.8c0.1-0.2,0.1-0.3,0.2-0.5c-1.6,0.1-3.2,0-4.8,0.1c-1.8,1.6-4.2,2-6.5,1.3c-1.6-0.6-2.8-2-3.1-3.7
			c4.9-0.1,9.8,0,14.6,0c0.3-2.9-0.7-5.8-2.9-7.8c-2.3-2.2-5.7-2.7-8.7-2.2c-3,0.6-5.6,2.6-6.7,5.5c-0.8,1.9-0.8,4.1-0.3,6.1
			c0.9,2.8,3,5,5.8,5.9c2.8,0.8,5.9,0.5,8.6-0.8C70.2,35.7,71.5,34.4,72.4,32.8L72.4,32.8z M62.9,23.4c2.3-0.3,4.6,1,5.5,3.1
			c-3.3,0.1-6.7,0.1-10,0C59.2,24.8,61,23.5,62.9,23.4L62.9,23.4z"/>
	</g>
</g>
</svg>
