<?xml version="1.0" encoding="utf-8"?>
<!-- Generator: Adobe Illustrator 22.0.0, SVG Export Plug-In . SVG Version: 6.00 Build 0)  -->
<svg version="1.1" id="Capa_1" xmlns="http://www.w3.org/2000/svg" xmlns:xlink="http://www.w3.org/1999/xlink" x="0px" y="0px"
	 viewBox="0 0 84 55" style="enable-background:new 0 0 84 55;" xml:space="preserve">
<style type="text/css">
	.st0{fill:#1A171B;}
</style>
<g transform="translate(0)">
	<g transform="translate(0 0)">
		<path class="st0" d="M60.1,39.4c-0.4-0.6-1-1.2-1.6-1.6l-2-1.4c-0.7-0.6-0.7-0.6-0.3-1.7c0.2-0.8,1-1.3,1.9-1.3
			c1.2,0,1,0.6,0.7,1.4l-0.5,1.2H62l0.7-1.7c1.1-2.7-1.1-3.7-3.4-3.7c-1.5-0.1-3,0.2-4.4,0.9c-1.2,0.9-2.2,2.1-2.6,3.6
			c-0.6,1.5-0.8,2.5,0.6,3.6c0,0,0.7,0.5,2.5,1.7c0.8,0.5,0.8,0.9,0.4,2c-0.6,1.4-0.7,1.9-2.2,1.9s-1.1-0.7-0.8-1.6l0.7-1.8h-3.8
			l-1,2.5c-1,2.5,0.3,3.8,3.7,3.8c2.5,0,3.9-0.3,5.1-1.5c0.9-1,1.6-2.1,1.9-3.4C60.3,40.9,60.4,40.1,60.1,39.4z"/>
		<path class="st0" d="M73.6,31.4c-0.8-0.4-1.7-0.5-2.7-0.4h-5.1l-6.3,15.8h5.9c1.1,0.1,2.2-0.1,3.2-0.5c1.6-0.8,2-1.9,2.6-3.1
			l0.5-1.4c0.6-1.6,0.8-2.5-0.5-2.9c1.6-0.4,2.1-1.2,2.7-2.7l0.5-1.5C75,33.4,74.7,32,73.6,31.4 M68.2,41.6l-0.4,0.9
			c-0.5,1.3-0.9,1.4-2.3,1.4h-1.2l1.5-3.7h1.3C68.5,40.2,68.7,40.4,68.2,41.6 M70.8,35.2L70.5,36c-0.5,1.2-1.2,1.3-2.4,1.3H67
			l1.4-3.5h0.8C70.7,33.7,71.3,33.8,70.8,35.2L70.8,35.2z"/>
		<path class="st0" d="M20.6,17.4v9h5l8-19.8h-4.8l-3.3,8.1V6.6h-5.3l-8,19.8l4.8,0C16.9,26.4,19.8,19.3,20.6,17.4z"/>
		<path class="st0" d="M32.8,26.4l8-19.8h-4.9l-8,19.8L32.8,26.4z"/>
		<path class="st0" d="M71.2,21.3l-11.2,3l0.7-1.7h-5.8l1.8-4.7h4.7l1.4-3.5h-4.7c0-0.1,1.8-4.3,1.8-4.3h4.7l1.4-3.5h-9.7l-7.8,19.4
			l-1.1-9.7l8.8-9.6H51l-5.3,5.6L48,6.6h-4.9l-8,19.8H40l3.1-7.9c0,0,0,0.6,0.8,7.9l4.5,0h3.9c0,0-0.6,0.1-7.4,1.9
			c-8.4,2.2-14.4,3.7-18.3,4.7c-8.9,2.1-11.4,2.2-13.9,0.5c-2-1.3-2.8-3.5-2.7-6.8c0.1-1.3,0.4-2.7,0.8-3.9c0.3-0.8,0.6-1.6,1-2.4
			c0.1-0.2,0.3-0.6,0.3-0.6s-0.9,0.8-1.6,1.6c-0.4,0.5-0.6,0.6-1.8,2c-1.3,1.5-2.8,3.2-4.3,5.3c-2.1,2.8-3.9,5.7-4.4,9.4
			C-0.5,40-0.2,42,0.5,43.8c3.5,6.9,10.7,5.5,24.4-0.2c7.7-3.1,59.4-26.2,59.4-26.2L71.2,21.3z"/>
	</g>
</g>
</svg>
